<svg width="3048" height="2597" viewBox="0 0 3048 2597" xmlns="http://www.w3.org/2000/svg"><title>moonfarmer_logo</title><g fill="#9BA4C1" fill-rule="evenodd"><path d="M2512.519 1865.689c.71-3.636 2.114-6.926 4.263-9.778 14.996-19.901 60.536-10.879 101.716 20.152 41.179 31.031 62.404 72.32 47.408 92.221-5.711 7.578-15.85 10.963-28.491 10.535 176.96 162.276 318.161 362.923 410.421 588.76C2957.797 1806.938 2310.729 1217 1525.874 1217 730.928 1217 77.335 1822.207.716 2597c58.056-150.402 137.659-290.09 235.024-415.28-3.174-.565-6.002-1.809-8.356-3.784-12.789-10.73-6.748-38.984 13.491-63.105 20.24-24.12 47.015-34.975 59.804-24.244 12.42 10.42 7.083 37.364-11.77 61.002-1.51 23.309 4.128 42.34 17.755 53.774 37.12 31.147 119.457-5.867 183.906-82.674 64.449-76.807 86.603-164.321 49.484-195.468-6.525-5.475-14.448-8.844-23.425-10.261-32.937 12.07-63.486 9.76-78.623-8.933-22.718-28.054-2.125-82.384 45.995-121.351s105.545-47.814 128.262-19.76c15.752 19.452 10.681 51.537-9.95 82.374 51.45 68.804 212.29 68.55 375.419-4.08 159.24-70.898 265.77-186.324 255.219-270.176 96.374-17.654 195.694-26.876 297.169-26.876 182.33 0 357.706 29.776 521.53 84.73.453-1.252.94-2.495 1.464-3.73 26.226-61.783 132.371-75.837 237.083-31.39 104.711 44.448 168.337 130.565 142.111 192.35a73.724 73.724 0 0 1-10.026 16.892c-22.184-4.109-40.7-.115-48.58 12.496-13.273 21.242 8.653 58.885 48.973 84.08s83.766 28.4 97.04 7.16c7.288-11.666 3.962-28.277-7.196-45.057zM777.125 2210.22c-83.637 56.414-173.948 68.775-201.715 27.609-27.766-41.166 17.526-120.27 101.163-176.684 83.637-56.413 173.947-68.775 201.714-27.609 27.767 41.166-17.525 120.27-101.162 176.684zm-523.366 170.793c-19.802 35.723-50.108 56.781-67.69 47.035-17.583-9.746-15.784-46.606 4.018-82.329 19.801-35.723 50.107-56.781 67.69-47.035 17.582 9.746 15.783 46.606-4.018 82.33z"/><path d="M1835.272 1286.05c-8.5-30.981-8.753-63.49.877-94.988 31.213-102.092 179.134-235.762 299.904-198.839 120.77 36.923 168.656 230.457 137.443 332.55-10.928 35.744-33.134 65.45-62.564 87.38a143.86 143.86 0 0 0 4.642-12.94c27.081-88.58-35.91-186.36-140.696-218.395-104.786-32.036-211.685 13.801-238.767 102.38-.29.95-.57 1.9-.84 2.851z"/><path d="M2034.23 1326.416s-14.508-533.995 85.819-862.15S2439.563.633 2439.563.633s105.956 234.885 5.63 563.04c-100.328 328.155-410.962 762.743-410.962 762.743zm239.075-781.975c48.244 14.75 99.31-12.403 114.06-60.647s-12.403-99.31-60.647-114.06-99.31 12.403-114.06 60.647 12.403 99.31 60.647 114.06zM1051.713 451.995l98.265-46.575 11.45 108.932-155.052 16.296 45.337-78.653zm204.067-21.448l60.698 67.508-155.05 16.297-11.45-108.932 105.802 25.127zM737.534 1031.965l952.286-100.09 43.234 411.343-952.287 100.09z"/><path d="M820.748 754.596l354.731-202.984-24.832-43.397-354.731 202.984 24.832 43.397zm10.414 324.295V743.086l-45.66-20.377-146.299 376.674 191.959-20.492zm728.717-447.988l-389.182-124.796-15.268 47.613 389.182 124.795 15.268-47.612zm245.375 336.632l-232.796-327.538-40.426 29.425 146.702 312.46 126.52-14.347z" fill-rule="nonzero"/><path d="M1052.073 517.979l217.072-22.816 22.898 217.863-217.071 22.816z"/><path d="M1184.994 738.571l-21.931-208.657-354.731 202.984-158.158 354.397 565.228-59.408-10.942-104.11-80.698 8.482-19.466-185.206 80.698-8.482zm19.466 185.206l10.942 104.11 565.228-59.408-228.385-313.77-389.182-124.795 21.93 208.657 84.411-8.872 19.466 185.206-84.41 8.872zM1559.833 630.057l13.468 7.739-18.306 17.013-.706-.526zM795.859 710.108l-9.152 12.541 23.564 8.5.978-1.035z"/><g transform="rotate(-8 1816.736 -6957.244)"><path d="M125.077 190.713v33.558H100.37v36.622h61.764v-36.622H137.43v-34.118c11.41-2.84 20.295-11.957 22.679-23.418h85.794v-12.353H160.11c-2.384-11.461-11.27-20.578-22.68-23.419V68.67h-12.352v61.734c-12.733 1.957-22.892 11.6-25.466 23.979H26.169v12.353h73.442c2.574 12.378 12.733 22.022 25.466 23.978z"/><path d="M.156 191.077l9.882-30.519h39.529l-9.882 30.519H.155zm0-61.037h39.529l9.882 30.518h-39.53L.157 130.04zM210.153 191.077l12.353-30.519h49.41l-61.763 30.519zm0-61.037l61.764 30.518h-49.411l-12.353-30.518z"/><ellipse cx="131.092" cy="51.316" rx="51.316" ry="51.316"/></g><g><path d="M506.446 1284.734c30.545 63.929 89.005 178.369 164.39 288.657a1083.879 1083.879 0 0 1 32.87-27.474c-30.776-39.162-66.71-89.401-108.338-155.763 25.294-3.202 104.408-22.517 81.877-138.563 0 0-109.77 2.111-92.819 120.943a2751.079 2751.079 0 0 1-24.803-41.06s-29.853-52.733-52.132-100.212c125.34-162.701-23.535-248.807-23.535-248.807-136.564 130.021-39.393 223.081-.64 251.997 1.449 3.337 6.917 15.8 15.898 34.992-26.006-28.917-100.218-89.957-200.094 10.639 0 0 79.813 121.791 207.326 4.65M473.941 1793.334c-7.808 4.694-27.416 28.194-35.057 33.208-139.177-141.99-156.292-131.05-188.333-169.368-6.952 14.73-42.756 71.105-108.738 34.618 0 0 26.719-72.312 95.496-38.666-6.35-7.47-34.958-28.103-41.97-36.064 0 0-7.847-9.477-32.257-32.335-123.58 44.127-146.372-63.189-146.372-63.189 105.964-57.364 143.215 19.924 153.095 49.138 1.738 1.534 8.222 7.305 18.093 16.529-12.404-21.473-34.764-78.53 46.074-119.401 0 0 58.128 72.396-38.224 126.797 32.758 31.11 226.171 131.286 278.193 198.733zM2588.776 1145.09c-38.79 81.244-113.039 226.679-208.834 366.81a1383.416 1383.416 0 0 0-41.87-34.977c39.116-49.753 84.782-113.585 137.674-197.91-32.197-4.105-132.91-28.769-104.39-176.293 0 0 139.706 2.831 118.291 153.904a3487.612 3487.612 0 0 0 31.513-52.175s37.924-67.011 66.214-127.351c-159.736-207.044 29.622-316.33 29.622-316.33 173.977 165.506 50.433 283.703 1.15 320.418-1.839 4.24-8.782 20.082-20.186 44.471 33.06-36.733 127.427-114.248 254.673 13.794 0 0-101.416 154.753-263.857 5.638"/><path d="M2660.31 1415.992c-42.868 31.745-119.583 99.534-209.759 143.88 8.474 6.625 44.742 47.583 52.974 54.557 24.515-28.375 48.609-77.263 91.672-117.557 6.028 18.26 31.757 74.048 114.335 40.782 0 0-17.44-80.934-102.885-51.399a2066.413 2066.413 0 0 1 26.783-24.226s34.687-29.633 66.583-52.91c138.476 69.497 180.631-52.991 180.631-52.991-115.927-82.474-170.705 2.743-186.488 35.557-2.258 1.549-10.686 7.378-23.582 16.768 17.627-23.38 52.042-87.029-36.813-146.56 0 0-78.54 76.48 26.55 154.099M553.851 1660.776s-79.576-82.635-98.808-113.283c72.554-122.288-36.787-168.591-36.787-168.591-82.968 100.84-8.546 156.336 20.456 172.847 1.27 2.162 6.057 10.241 13.816 22.632-20.251-17.602-76.26-53.106-136.482 24.415 0 0 64.89 76.68 142.714-14.55 16.19 25.406 41.253 63.064 72.356 104.413l22.735-27.883z"/></g></g></svg>